<svg width="367" height="100" viewBox="0 0 367 100" fill="none" xmlns="http://www.w3.org/2000/svg">
<g clip-path="url(#clip0_12_32)">
<path d="M54.1535 41.9607C51.2964 41.9607 49.0107 44.4321 49.0107 47.5036C49.0107 50.575 51.3293 53.0464 54.1535 53.0464C57.0107 53.0464 59.2964 50.575 59.2964 47.5036C59.2964 44.4321 56.9778 41.9607 54.1535 41.9607V41.9607ZM35.7564 41.9607C32.8993 41.9607 30.6135 44.4321 30.6135 47.5036C30.6135 50.575 32.9321 53.0464 35.7564 53.0464C38.6135 53.0464 40.8993 50.575 40.8993 47.5036C40.9493 44.4293 38.6307 41.9607 35.7564 41.9607V41.9607ZM78.635 0.0264282H11.1107C5.41497 0.0264282 0.777832 4.66357 0.777832 10.3593V77.8836C0.777832 83.5793 5.41497 88.2164 11.1107 88.2164H68.2536L65.5821 78.9936L72.0336 84.9407L78.1335 90.535L89.0193 99.9607V10.3593C88.9807 4.66357 84.3435 0.0264282 78.635 0.0264282ZM59.2064 65.3121L55.8778 61.2807C62.4807 59.4164 65.0007 55.3336 65.0007 55.3336C62.9335 56.695 60.9693 57.6521 59.205 58.3079C56.685 59.365 54.265 60.0221 51.8964 60.475C47.0578 61.3821 42.6221 61.1321 38.8421 60.425C35.985 59.8707 33.4993 59.115 31.4335 58.2579C30.1694 57.7705 28.9399 57.1978 27.7535 56.5436C27.6021 56.4436 27.4507 56.3921 27.2993 56.2921C27.1993 56.2421 27.1478 56.1921 27.0993 56.1921C26.1921 55.6879 25.6878 55.335 25.6878 55.335C25.6878 55.335 28.1064 59.3164 34.5078 61.2321C32.9964 63.1464 31.1307 65.365 31.1307 65.365C19.9921 65.0121 15.7593 57.755 15.7593 57.755C15.7593 41.6764 23.0164 28.6236 23.0164 28.6236C30.2735 23.2307 37.1307 23.3807 37.1307 23.3807L37.635 23.985C28.5635 26.5564 24.4293 30.5379 24.4293 30.5379C24.4293 30.5379 25.5378 29.9336 27.4035 29.1264C32.7964 26.7579 37.0807 26.1521 38.8321 25.9507C39.135 25.9007 39.3864 25.8507 39.6893 25.8507C43.0669 25.4106 46.4851 25.377 49.8707 25.7507C54.6593 26.305 59.7993 27.7164 65.0421 30.5393C65.0421 30.5393 61.0607 26.7593 52.4921 24.1893L53.1978 23.3821C53.1978 23.3821 60.1035 23.2307 67.3121 28.625C67.3121 28.625 74.5693 41.6793 74.5693 57.7579C74.5693 57.7079 70.335 64.965 59.1978 65.3179L59.2064 65.3121ZM135.314 21.5979H118.566V40.3979L129.705 50.4264V32.1693H135.652C139.432 32.1693 141.295 33.9836 141.295 36.9064V50.8836C141.295 53.8064 139.531 55.7721 135.652 55.7721H118.516V66.4064H135.249C144.221 66.4564 152.638 61.9707 152.638 51.6893V36.6693C152.688 26.1864 144.271 21.5979 135.299 21.5979H135.314ZM223.028 51.6879V36.265C223.028 30.7221 233.008 29.4607 236.032 35.005L245.255 31.2907C241.626 23.3279 235.024 21.0093 229.529 21.0093C220.558 21.0093 211.672 26.2007 211.672 36.295V51.7179C211.672 61.8993 220.529 67.0036 229.312 67.0036C234.955 67.0036 241.712 64.2321 245.455 56.975L235.576 52.4393C233.158 58.6393 223.026 57.125 223.026 51.7336L223.028 51.6879ZM192.492 38.3836C189.015 37.6264 186.696 36.3836 186.545 34.2007C186.745 29.0093 194.759 28.8079 199.448 33.7979L206.856 28.1021C202.219 22.4593 196.978 20.9593 191.571 20.9593C183.356 20.9593 175.392 25.5964 175.392 34.3664C175.392 42.885 181.945 47.4707 189.152 48.5807C192.832 49.085 196.914 50.5464 196.814 53.0664C196.511 57.855 186.632 57.6021 182.146 52.1593L175.004 58.8621C179.186 64.255 184.882 66.9764 190.225 66.9764C198.439 66.9764 207.564 62.2393 207.916 53.5693C208.421 42.6321 200.456 39.8607 192.494 38.3979L192.492 38.3836ZM158.721 66.355H170.011V21.5979H158.721V66.355ZM349.104 21.5979H332.371V40.3979L343.509 50.4264V32.1693H349.456C353.236 32.1693 355.099 33.9836 355.099 36.9064V50.8836C355.099 53.8064 353.335 55.7721 349.456 55.7721H332.321V66.4064H349.106C358.075 66.455 366.492 61.9693 366.492 51.6879V36.6693C366.492 26.1864 358.075 21.5979 349.104 21.5979V21.5979ZM266.999 20.9936C257.725 20.9936 248.502 26.0336 248.502 36.365V51.6507C248.502 61.8821 257.776 67.0221 267.102 67.0221C276.376 67.0221 285.599 61.8793 285.599 51.6507V36.365C285.599 26.0836 276.275 20.9936 266.999 20.9936V20.9936ZM274.256 51.6364C274.256 54.8621 270.628 56.525 267.049 56.525C263.421 56.525 259.792 54.9621 259.792 51.6364V36.3507C259.792 33.075 263.321 31.3107 266.849 31.3107C270.529 31.3107 274.258 32.8736 274.258 36.3507V51.6364H274.256ZM326.119 36.3507C325.868 25.8679 318.711 21.6336 309.486 21.6336H291.592V66.3907H303.021V52.1764H305.021L315.404 66.3907H329.518L317.321 51.0193C322.714 49.305 326.092 44.6193 326.092 36.3521L326.119 36.3507ZM309.688 42.3993H303.035V32.1693H309.688C316.795 32.1693 316.795 42.4007 309.688 42.4007V42.3993Z" fill="#7289DA"/>
</g>
<defs>
<clipPath id="clip0_12_32">
<rect width="365.714" height="100" fill="white" transform="translate(0.777832)"/>
</clipPath>
</defs>
</svg>
