<svg width="426" height="100" viewBox="0 0 426 100" fill="none" xmlns="http://www.w3.org/2000/svg">
<g clip-path="url(#clip0_12_39)">
<path d="M31.803 50.0286C31.803 39.7143 40.1958 31.35 50.5565 31.35C60.9137 31.35 69.3101 39.7107 69.3101 50.0286C69.3101 60.35 60.9173 68.7107 50.5601 68.7107C40.1994 68.7107 31.803 60.3464 31.803 50.0321" fill="#00AA13"/>
<path d="M50.553 0.221437C22.9387 0.221437 0.552979 22.5214 0.552979 50.0321C0.552979 70.6821 13.0708 88.3107 31.2458 95.9822C32.5239 96.5193 33.9053 96.7661 35.2903 96.7047C36.6753 96.6433 38.0294 96.2753 39.2549 95.6271C40.4805 94.979 41.5469 94.0669 42.3772 92.9567C43.2075 91.8465 43.7811 90.5659 44.0565 89.2072C44.4813 87.0891 44.1581 84.8894 43.142 82.9831C42.126 81.0767 40.4802 79.5819 38.4851 78.7536V78.75C27.2208 74.0464 19.303 62.9643 19.303 50.0321C19.303 32.8357 33.2923 18.8964 50.5565 18.8964C67.8208 18.8964 81.8137 32.8357 81.8137 50.0321C81.8137 62.9607 73.8958 74.0464 62.628 78.7464V78.7536C60.6326 79.5826 58.9867 81.0784 57.9712 82.9857C56.9557 84.8929 56.6336 87.0935 57.0597 89.2118C57.4858 91.3301 58.6338 93.235 60.3078 94.6012C61.9817 95.9675 64.0779 96.7106 66.2387 96.7036C67.4811 96.696 68.7105 96.4499 69.8601 95.9786C88.0351 88.3072 100.557 70.675 100.557 50.0286C100.557 22.5143 78.1673 0.214294 50.553 0.214294" fill="#00AA13"/>
<path d="M245.639 44.5036C245.639 35.4929 239.435 28.7929 229.764 28.7929C220.085 28.7929 213.885 35.4964 213.885 44.5072C213.885 53.5107 220.089 60.2214 229.764 60.2214C239.435 60.2214 245.639 53.5143 245.639 44.5072V44.5036ZM198.321 44.5072C198.321 27.9572 211.464 15.175 229.764 15.175C248.164 15.175 261.203 27.9572 261.203 44.5072C261.203 61.0572 248.164 73.8357 229.764 73.8357C211.467 73.8357 198.321 61.0572 198.321 44.5072V44.5072ZM255.86 85.8214H264.271C268.792 85.8214 270.371 84.1429 270.371 80.1643V15.1929H285.932V80.3714C285.932 94.0964 280.36 99.9607 265.535 99.9607H255.857V85.8179L255.86 85.8214ZM173.374 47.5357C173.374 54.3929 166.389 59.8714 157.499 59.8714C147.449 59.8714 141.203 53.9679 141.203 44.1643C141.203 35.1 147.871 28.8786 158.135 28.8786C166.285 28.8786 173.374 34.5714 173.374 41V47.5357V47.5357ZM174.01 15.1572V21.7072H173.796C169.774 17.4929 163.11 15.1714 155.174 15.1714C138.135 15.1714 125.542 27.8214 125.542 44.1607C125.542 61.1357 138.453 73.575 155.703 73.575C163.424 73.575 169.882 71.1464 173.799 66.825H174.014V72.475C174.014 80.0643 167.449 85.65 158.771 85.65C150.021 85.65 144.928 83.1929 140.507 78.9822L130.374 88.6964C137.164 95.875 147.399 99.9572 159.089 99.9572C176.871 99.9572 189.035 88.075 189.035 72.2643V15.1572H174.01ZM325.699 27.7429C334.003 27.7429 339.789 32.0393 340.524 38.5357H310.66C311.503 32.0393 317.289 27.7429 325.699 27.7429V27.7429ZM327.307 61.2643C317.978 61.2643 310.646 55.2572 310.453 49.4286H355.667V45.0322C355.667 28.375 344.099 15.175 325.382 15.175C307.717 15.175 295.099 27.5393 295.099 44.6143C295.099 62.2107 308.41 73.8357 327.974 73.8357C339.96 73.8357 348.557 68.1107 353.042 62.6286L342.496 55.2643C337.807 59.625 333.549 61.2643 327.31 61.2643H327.307ZM364.835 0.0714417H379.857L379.939 38.5357H380.142L405.292 15.0429H425.428L399.364 39.6179L425.324 73.7893H407.346L389.517 49.0929H389.314L379.857 58.0179V73.8322H364.835V0.0714417Z" fill="black"/>
</g>
<defs>
<clipPath id="clip0_12_39">
<rect width="425" height="100" fill="white" transform="translate(0.492188)"/>
</clipPath>
</defs>
</svg>
