<svg width="303" height="100" viewBox="0 0 303 100" fill="none" xmlns="http://www.w3.org/2000/svg">
<path d="M76.0472 34.5722H41.2694V44.8917H65.9361C64.7139 59.3361 52.6778 65.5361 41.3111 65.5361C37.7102 65.5519 34.1422 64.8503 30.8154 63.472C27.4887 62.0938 24.4698 60.0666 21.9351 57.5089C19.4004 54.9512 17.4006 51.9141 16.0525 48.575C14.7044 45.2359 14.035 41.6618 14.0833 38.0611C14.0833 22.4389 26.1778 10.4111 41.3444 10.4111C53.0444 10.4111 59.9389 17.8695 59.9389 17.8695L67.1611 10.3861C67.1611 10.3861 57.8833 0.0611267 40.9667 0.0611267C19.425 0.0611267 2.76111 18.2417 2.76111 37.8778C2.76111 57.1195 18.4361 75.8834 41.5111 75.8834C61.8083 75.8834 76.6667 61.9778 76.6667 41.4167C76.6667 37.0778 76.0361 34.5722 76.0361 34.5722H76.0472Z" fill="#4885ED"/>
<path d="M104.539 27.0972C90.2667 27.0972 80.0389 38.2556 80.0389 51.2639C80.0389 64.4695 89.9556 75.8333 104.706 75.8333C118.056 75.8333 128.992 65.6306 128.992 51.5472C128.992 35.4361 116.269 27.0945 104.539 27.0945V27.0972ZM104.678 36.6695C111.694 36.6695 118.344 42.3445 118.344 51.4861C118.344 60.4306 111.722 66.2694 104.644 66.2694C96.8667 66.2694 90.7556 60.0417 90.7556 51.4139C90.7556 42.9694 96.8112 36.6695 104.7 36.6695H104.678Z" fill="#DB3236"/>
<path d="M157.819 27.0972C143.547 27.0972 133.319 38.2556 133.319 51.2639C133.319 64.4695 143.236 75.8333 157.986 75.8333C171.336 75.8333 182.272 65.6306 182.272 51.5472C182.272 35.4361 169.55 27.0945 157.819 27.0945V27.0972ZM157.958 36.6695C164.975 36.6695 171.625 42.3445 171.625 51.4861C171.625 60.4306 165.003 66.2694 157.925 66.2694C150.147 66.2694 144.036 60.0417 144.036 51.4139C144.036 42.9694 150.092 36.6695 157.981 36.6695H157.958Z" fill="#F4C20D"/>
<path d="M210.078 27.125C196.978 27.125 186.683 38.5972 186.683 51.475C186.683 66.1417 198.619 75.8694 209.85 75.8694C216.794 75.8694 220.489 73.1111 223.183 69.9472V74.7528C223.183 83.1611 218.078 88.1972 210.372 88.1972C202.928 88.1972 199.194 82.6611 197.872 79.5222L188.506 83.4111C191.828 90.4389 198.517 97.7639 210.45 97.7639C223.506 97.7639 233.4 89.5611 233.4 72.3556V28.5889H223.222V32.7167C220.083 29.3278 215.783 27.125 210.083 27.125H210.078ZM211.022 36.6806C217.444 36.6806 224.039 42.1639 224.039 51.5278C224.039 61.0472 217.456 66.2917 210.881 66.2917C203.897 66.2917 197.4 60.625 197.4 51.6167C197.4 42.2611 204.15 36.6778 211.022 36.6778V36.6806Z" fill="#4885ED"/>
<path d="M278.889 27.0667C266.533 27.0667 256.158 36.9 256.158 51.4C256.158 66.75 267.722 75.8528 280.047 75.8528C290.358 75.8528 296.714 70.2139 300.464 65.1583L292.039 59.5528C289.853 62.9416 286.197 66.2611 280.1 66.2611C273.25 66.2611 270.1 62.5111 268.147 58.8722L300.822 45.3166L299.156 41.3444C296 33.5667 288.636 27.0667 278.892 27.0667H278.889ZM279.314 36.4389C283.767 36.4389 286.969 38.8055 288.331 41.6444L266.508 50.7639C265.564 43.7028 272.258 36.4389 279.286 36.4389H279.314Z" fill="#DB3236"/>
<path d="M240.556 74.4083H251.289V2.58334H240.556V74.4083Z" fill="#3CBA54"/>
</svg>
