<svg width="301" height="100" viewBox="0 0 301 100" fill="none" xmlns="http://www.w3.org/2000/svg">
<path d="M50.816 2.17896C24.3607 2.17896 2.99756 23.6053 2.99756 50C2.99756 76.4526 24.4186 97.8211 50.8186 97.8211C77.2712 97.8211 98.6397 76.4 98.6397 50C98.6397 23.6 77.2186 2.17896 50.8186 2.17896H50.816ZM72.7555 71.1947C71.8976 72.6237 70.0712 73.0237 68.6423 72.1684C57.387 65.3132 43.2739 63.7737 26.5897 67.5369C24.9897 67.879 23.3897 66.9053 23.0476 65.3079C22.7055 63.7105 23.6791 62.1079 25.2765 61.7658C43.5028 57.5947 59.1555 59.3658 71.7239 67.0816C73.1528 67.9395 73.6081 69.7658 72.7502 71.1947H72.7555ZM78.5818 58.1684C77.4976 59.9395 75.2133 60.4526 73.4397 59.4263C60.5844 51.5421 40.9923 49.2579 25.7923 53.8263C23.7923 54.3974 21.7397 53.3132 21.1607 51.3684C20.5897 49.3684 21.6739 47.3158 23.6739 46.7368C41.0423 41.4816 62.637 43.9947 77.437 53.0526C79.1476 54.079 79.666 56.3684 78.5791 58.1368L78.5818 58.1684ZM79.0949 44.5711C63.6686 35.429 38.2449 34.5711 23.5055 39.029C21.137 39.7711 18.6502 38.3974 17.9055 36.0553C17.1607 33.7132 18.537 31.2 20.8791 30.4553C37.7897 25.3132 65.9002 26.3421 83.6107 36.8553C85.7239 38.1132 86.4107 40.8553 85.1528 42.9684C84.0107 45.1395 81.2107 45.8263 79.1002 44.5684L79.0949 44.5711Z" fill="#1ED760"/>
<path d="M123.517 48.5694C115.361 46.6569 113.954 45.2506 113.954 42.3819C113.954 39.6819 116.486 37.8819 120.254 37.8819C123.911 37.8819 127.567 39.2881 131.392 42.1006C131.504 42.2131 131.673 42.2131 131.786 42.2131C131.954 42.2131 132.067 42.1006 132.123 41.9881L136.117 36.3631C136.196 36.2502 136.229 36.1111 136.208 35.9749C136.187 35.8386 136.114 35.7157 136.004 35.6319C131.448 31.9756 126.329 30.2319 120.367 30.2319C111.592 30.2319 105.461 35.5194 105.461 43.0569C105.461 51.1569 110.748 54.0256 119.917 56.2194C127.679 58.0194 129.029 59.5381 129.029 62.1819C129.029 65.1631 126.386 67.0194 122.111 67.0194C117.386 67.0194 113.504 65.4444 109.173 61.6756C109.061 61.5631 108.892 61.5631 108.779 61.5631C108.611 61.5631 108.498 61.6194 108.442 61.7319L103.998 67.0194C103.829 67.2444 103.829 67.5819 104.054 67.7506C109.117 72.2506 115.304 74.6131 121.998 74.6131C131.448 74.6131 137.579 69.4381 137.579 61.4506C137.467 54.7006 133.417 50.9881 123.517 48.5694V48.5694ZM158.898 40.5256C154.792 40.5256 151.417 42.1569 148.661 45.4756V41.7631C148.661 41.4819 148.436 41.2569 148.154 41.2569H140.898C140.617 41.2569 140.392 41.4819 140.392 41.7631V83.1631C140.392 83.4444 140.617 83.6694 140.898 83.6694H148.154C148.436 83.6694 148.661 83.4444 148.661 83.1631V70.1131C151.417 73.2069 154.792 74.7256 158.898 74.7256C166.492 74.7256 174.254 68.8756 174.254 57.6256C174.198 46.4319 166.492 40.5256 158.898 40.5256V40.5256ZM165.761 57.6256C165.761 63.3631 162.217 67.3006 157.211 67.3006C152.204 67.3006 148.492 63.1381 148.492 57.6256C148.492 52.1131 152.261 47.9506 157.211 47.9506C162.161 47.9506 165.761 52.0006 165.761 57.6256ZM193.998 40.5256C184.211 40.5256 176.504 48.0631 176.504 57.7381C176.504 67.3006 184.154 74.7819 193.886 74.7819C203.729 74.7819 211.436 67.2444 211.436 57.6256C211.436 48.0631 203.786 40.5256 193.998 40.5256V40.5256ZM193.998 67.3569C188.767 67.3569 184.829 63.1381 184.829 57.6256C184.829 52.0569 188.654 48.0069 193.886 48.0069C199.117 48.0069 203.111 52.2256 203.111 57.7944C203.054 63.3069 199.229 67.3569 193.998 67.3569V67.3569ZM232.361 41.2006H224.373V32.9881C224.373 32.7069 224.148 32.4819 223.867 32.4819H216.611C216.329 32.4819 216.104 32.7069 216.104 32.9881V41.2006H212.617C212.336 41.2006 212.111 41.4256 212.111 41.7069V47.9506C212.111 48.2319 212.336 48.4569 212.617 48.4569H216.104V64.6569C216.104 71.1819 219.367 74.5006 225.779 74.5006C228.367 74.5006 230.561 73.9381 232.586 72.8131C232.754 72.7006 232.867 72.5319 232.867 72.3631V66.4006C232.867 66.2319 232.754 66.0631 232.642 65.9506C232.473 65.8381 232.304 65.8381 232.136 65.9506C230.729 66.6819 229.379 66.9631 227.861 66.9631C225.498 66.9631 224.486 65.8944 224.486 63.5319V48.5131H232.473C232.754 48.5131 232.979 48.2881 232.979 48.0069V41.7631C232.923 41.4256 232.698 41.2006 232.361 41.2006V41.2006ZM260.317 41.2569V40.2444C260.317 37.2631 261.442 35.9694 263.973 35.9694C265.492 35.9694 266.729 36.2506 268.079 36.7006C268.248 36.7569 268.417 36.7006 268.586 36.6444C268.698 36.5319 268.811 36.3631 268.811 36.1944V30.0631C268.811 29.8381 268.642 29.6131 268.417 29.5569C266.954 29.1069 265.154 28.7131 262.342 28.7131C255.592 28.7131 252.048 32.4819 252.048 39.6819V41.2006H248.561C248.279 41.2006 247.998 41.4256 247.998 41.7069V48.0069C247.998 48.2881 248.223 48.5131 248.561 48.5131H252.048V73.4881C252.048 73.7694 252.273 73.9944 252.554 73.9944H259.811C260.092 73.9944 260.317 73.7694 260.317 73.4881V48.5131H267.123L277.529 73.4881C276.348 76.1319 275.167 76.6381 273.592 76.6381C272.298 76.6381 270.948 76.2444 269.598 75.5131C269.486 75.4569 269.317 75.4569 269.148 75.4569C269.036 75.5131 268.867 75.6256 268.811 75.7381L266.336 81.1381C266.223 81.4194 266.336 81.7006 266.561 81.8131C269.148 83.2194 271.454 83.7819 274.323 83.7819C279.723 83.7819 282.648 81.2506 285.292 74.5569L297.948 41.9319C298.004 41.7631 298.004 41.5944 297.892 41.4256C297.779 41.2569 297.611 41.2006 297.442 41.2006H289.848C289.623 41.2006 289.398 41.3694 289.342 41.5381L281.579 63.7006L273.086 41.4819C273.029 41.2569 272.804 41.1444 272.579 41.1444H260.317V41.2569ZM244.117 41.2006H236.861C236.579 41.2006 236.354 41.4256 236.354 41.7069V73.4881C236.354 73.7694 236.579 73.9944 236.861 73.9944H244.117C244.398 73.9944 244.623 73.7694 244.623 73.4881V41.7631C244.679 41.4256 244.398 41.2006 244.117 41.2006V41.2006Z" fill="#1ED760"/>
<path d="M240.517 37.2069C243.406 37.2069 245.748 34.8647 245.748 31.9756C245.748 29.0865 243.406 26.7444 240.517 26.7444C237.628 26.7444 235.286 29.0865 235.286 31.9756C235.286 34.8647 237.628 37.2069 240.517 37.2069Z" fill="#1ED760"/>
</svg>
