<svg width="464" height="100" viewBox="0 0 464 100" fill="none" xmlns="http://www.w3.org/2000/svg">
<g clip-path="url(#clip0_12_44)">
<path fill-rule="evenodd" clip-rule="evenodd" d="M248.004 70.2512C242.973 75.3634 236.954 77.9329 229.978 77.9329C224.337 77.9329 219.543 76.7812 214.651 73.9352V62.2164C218.586 64.8889 223.532 67.434 228.408 67.434C238.582 67.434 244.639 60.4224 244.639 50.4861C244.639 40.5417 238.375 33.3218 228.196 33.3218C223.65 33.3218 219.964 34.9583 217.086 38.2384C214 41.7917 212.405 46.8704 212.405 53.5856V99.86H211.639C206.03 99.86 201.486 95.3102 201.486 89.6956V51.8484C201.486 35.7882 211.292 22.8206 228.146 22.8206C236.468 22.8206 243.227 25.6701 248.352 31.3947C253.17 36.7431 255.558 43.5197 255.558 51.6748C255.558 58.9317 253.038 65.1354 248.004 70.2512V70.2512ZM366.223 69.8588C361.211 75.2465 354.762 77.9329 346.942 77.9329C338.688 77.9329 331.962 75.0833 326.843 69.36C322.028 63.9456 319.638 57.1632 319.638 49.0822C319.638 34.7766 330.666 22.8206 345.177 22.8206C350.775 22.8206 355.635 24.0046 360.544 26.7002V38.5417C356.609 35.8681 351.665 33.3229 346.788 33.3229C336.614 33.3229 330.555 40.3333 330.555 50.2731C330.555 60.0775 336.966 67.4352 346.996 67.4352C351.538 67.4352 355.279 65.7303 358.272 62.2963C361.246 58.8854 362.791 53.8727 362.791 47.1389V10.3044C362.791 4.68866 367.337 0.140045 372.942 0.140045H373.71V48.8657C373.71 57.4468 371.229 64.4711 366.223 69.8588V69.8588ZM397.056 17.6204C395.91 18.9051 394.268 19.4965 392.264 19.4965C388.514 19.4965 385.834 16.7292 385.834 13.0046C385.834 9.19329 388.466 6.62037 392.263 6.62037C395.918 6.62037 398.694 9.33333 398.694 13.0046C398.694 14.8218 398.161 16.3785 397.056 17.6204V17.6204ZM452.534 47.1377C452.534 42.8275 450.905 39.4155 447.635 36.831C444.687 34.5046 441.006 33.3218 436.527 33.3218C426.645 33.3218 420.3 41.0567 420.3 50.5949C420.3 59.7731 427.025 67.434 436.423 67.434C442.96 67.434 446.455 63.6111 450.183 58.8484V72.5799C448.285 74.0046 446.1 75.5579 443.87 76.4699C441.516 77.4537 438.707 77.9329 435.461 77.9329C419.744 77.9329 409.381 64.9005 409.381 49.8391C409.381 42.1053 411.78 35.7118 416.61 30.7257C421.735 25.4421 428.459 22.8206 436.688 22.8206C452.292 22.8206 463.455 31.7917 463.455 48.0012V76.853H462.691C457.08 76.853 452.534 72.3021 452.534 66.6863V47.1377ZM303.066 44.0405C301.687 39.7685 299.956 37.6655 295.978 35.441C286.515 30.1481 277.203 34.6539 272.871 44L303.066 44.0405ZM294.734 77.772C287.761 79.2558 280.917 78.1111 274.241 74.375C267.727 70.7338 263.366 65.3183 261.18 58.162C256.761 43.6887 265.814 27.5602 280.376 23.6551C287.595 21.7199 294.516 22.5961 301.092 26.2743C312.013 32.3877 315.993 41.8426 315.298 54.0255L271.309 53.9375C271.957 58.9062 275.034 62.794 279.359 65.2118C283.743 67.6655 287.773 68.2512 291.512 67.0903C295.667 65.7847 299.035 62.3912 301.775 59.2315L310.74 65.772C307.082 72.3229 302.106 76.2002 294.734 77.772V77.772ZM386.805 23.9028H397.721V76.8518H396.954C391.351 76.8518 386.804 72.3009 386.804 66.6852L386.805 23.9028ZM16.4714 76.8518C5.79196 76.8518 0.492188 69.5799 0.492188 59.4213V20.8912C0.492188 15.2778 5.03848 10.7257 10.6461 10.7257H11.4123V23.9039H29.8602V34.4039H11.4112V60.64C11.4112 65.1018 13.4008 66.3542 17.6577 66.3542H29.8602V76.8542L16.4714 76.8518ZM79.8822 70.1586C74.4887 75.3368 68.0049 77.9317 60.4725 77.9317C53.0107 77.9317 46.5639 75.3345 41.1704 70.1586C35.7584 64.9618 33.0605 58.3472 33.0605 50.3773C33.0605 34.8264 44.9193 22.8218 60.4725 22.8218C67.9378 22.8218 74.4019 25.4375 79.829 30.6516C85.2746 35.8808 87.9957 42.4757 87.9957 50.3773C87.9957 58.3472 85.2943 64.9606 79.8822 70.1586V70.1586ZM130.932 36.6435C129.33 39.3333 128.088 41.2616 127.214 42.4271C126.251 43.6944 125.3 44.7072 124.358 45.4062C131.946 47.8599 134.772 53.1238 134.772 60.9653V76.8518H134.006C128.398 76.8518 123.852 72.3009 123.852 66.6852V62.0428C123.852 56.9653 121.578 53.5208 116.205 53.5208H106.29V76.8518H105.522C99.9158 76.8518 95.373 72.3009 95.373 66.6852V10.3044C95.373 4.68866 99.9158 0.140045 105.523 0.140045H106.29V42.9143H109.516C113.063 42.9143 115.393 41.6991 116.731 39.4016L125.902 23.9051L138.344 23.8935L130.932 36.6435ZM187.295 70.1597C181.9 75.338 175.416 77.9329 167.885 77.9329C160.424 77.9329 153.977 75.3356 148.581 70.1597C143.169 64.963 140.471 58.3484 140.471 50.3785C140.471 34.8275 152.331 22.8229 167.885 22.8229C175.35 22.8229 181.813 25.4387 187.241 30.6528C192.688 35.8819 195.407 42.4768 195.407 50.3785C195.407 58.3484 192.707 64.9618 187.295 70.1597ZM179.413 38.0556C176.404 34.9039 172.582 33.3218 167.885 33.3218C157.837 33.3218 151.821 40.6562 151.821 50.3785C151.821 59.9653 157.979 67.434 167.885 67.434C177.792 67.434 183.948 59.9653 183.948 50.3785C183.948 45.2882 182.42 41.2037 179.415 38.0556H179.413ZM72.0026 38.0556C68.9933 34.9039 65.1716 33.3218 60.4748 33.3218C50.4262 33.3218 44.4112 40.6562 44.4112 50.3785C44.4112 59.9653 50.5686 67.434 60.4737 67.434C70.3811 67.434 76.5362 59.9653 76.5362 50.3785C76.5362 45.2882 75.0107 41.2037 72.0026 38.0556Z" fill="#42B549"/>
</g>
<defs>
<clipPath id="clip0_12_44">
<rect width="462.963" height="100" fill="white" transform="translate(0.492188)"/>
</clipPath>
</defs>
</svg>
